<?xml version="1.0" encoding="UTF-8"?>
<svg width="256" height="256" xmlns="http://www.w3.org/2000/svg">
  <defs>
    <linearGradient id="gradRiki" x1="0%" y1="0%" x2="0%" y2="100%">
      <stop offset="0%" style="stop-color:#ff44ff;stop-opacity:1" />
      <stop offset="100%" style="stop-color:#aa00aa;stop-opacity:1" />
    </linearGradient>
  </defs>
  <rect width="256" height="256" fill="url(#gradRiki)" rx="15"/>
  <!-- Голова -->
  <circle cx="128" cy="90" r="32" fill="#ffaaff" stroke="#fff" stroke-width="2"/>
  <!-- Маска -->
  <path d="M 96 75 Q 128 85 160 75 L 160 95 Q 128 95 96 95 Z" fill="#aa00aa" opacity="0.7"/>
  <!-- Кинжалы -->
  <path d="M 50 80 L 65 95 L 60 100 L 45 85 Z" fill="#cccccc"/>
  <path d="M 206 80 L 221 95 L 216 100 L 201 85 Z" fill="#cccccc"/>
  <!-- Тело -->
  <rect x="108" y="122" width="40" height="65" fill="#cc44cc" rx="5"/>
  <!-- Капюшон -->
  <path d="M 98 122 Q 128 110 158 122 L 158 140 Q 128 135 98 140 Z" fill="#aa22aa"/>
  <!-- Ноги -->
  <rect x="115" y="187" width="12" height="35" fill="#992299" rx="3"/>
  <rect x="129" y="187" width="12" height="35" fill="#992299" rx="3"/>
  <text x="128" y="240" font-family="Arial, sans-serif" font-size="24" font-weight="bold" fill="#fff" text-anchor="middle">RIKI</text>
</svg>
